<svg xmlns="http://www.w3.org/2000/svg" width="403" height="383" viewBox="0 0 403 383" version="1.1">
	<path d="M -0 191.502 L -0 383.005 201.750 382.752 L 403.500 382.500 403.753 191.250 L 404.005 0 202.003 0 L 0 0 -0 191.502 M 0.490 192 C 0.490 297.325, 0.607 340.413, 0.750 287.750 C 0.893 235.088, 0.893 148.912, 0.750 96.250 C 0.607 43.588, 0.490 86.675, 0.490 192 M 186.500 99.209 C 168.605 101.949, 161.826 103.316, 160.724 104.405 C 160.051 105.070, 157.250 106.201, 154.500 106.917 C 148.468 108.487, 135.264 113.721, 132.527 115.627 C 131.443 116.382, 129.899 117, 129.096 117 C 127.176 117, 107.999 128.263, 101 133.501 C 83.357 146.705, 81.780 148.111, 66.465 164.289 C 53.123 178.382, 50.227 183.855, 53.250 189.264 C 56.549 195.166, 84.041 224.931, 86.241 224.983 C 86.649 224.992, 91.143 228.386, 96.228 232.525 C 101.313 236.664, 107.367 240.967, 109.681 242.088 C 111.995 243.208, 114.950 244.960, 116.249 245.981 C 117.547 247.002, 122.184 249.467, 126.554 251.459 C 130.924 253.451, 135.643 255.708, 137.040 256.473 C 142.274 259.341, 159.406 264.790, 172 267.592 C 183.141 270.070, 212.668 270.579, 227.013 268.539 C 238.925 266.845, 262.315 260.159, 268.694 256.625 C 270.237 255.769, 275.325 253.240, 280 251.004 C 284.675 248.768, 290.525 245.625, 293 244.019 C 295.475 242.414, 298.855 240.403, 300.511 239.550 C 302.166 238.697, 304.648 236.987, 306.025 235.750 C 312.650 229.797, 319.912 224, 320.744 224 C 321.638 224, 325.648 219.914, 342.378 201.956 C 346.711 197.305, 351.120 191.588, 352.175 189.250 C 354.068 185.056, 354.068 184.944, 352.157 180.750 C 349.652 175.253, 326.653 150.239, 319 144.687 C 316.053 142.549, 311.687 139.103, 304.509 133.250 C 301.643 130.912, 298.843 129, 298.288 129 C 297.733 129, 295.529 127.804, 293.390 126.343 C 288.235 122.822, 264.664 111, 262.799 111 C 261.993 111, 261.018 110.685, 260.633 110.299 C 259.773 109.439, 249.029 106.035, 247.110 106.015 C 246.346 106.007, 245.221 105.318, 244.610 104.484 C 243.903 103.518, 239.869 102.428, 233.500 101.481 C 228 100.663, 220.488 99.546, 216.807 98.997 C 208.910 97.820, 194.930 97.918, 186.500 99.209 M 195 124.652 C 193.625 124.861, 190.700 125.540, 188.500 126.160 C 172.114 130.781, 167.028 133.665, 156.640 144.226 C 145.837 155.209, 141.894 162.852, 139.952 176.572 C 138.356 187.844, 140.153 200.152, 144.836 210.023 C 148.054 216.807, 162 233, 164.625 233 C 165.381 233, 166 233.408, 166 233.906 C 166 234.404, 169.326 236.433, 173.391 238.415 C 180.746 242, 196.239 245.954, 203.051 245.984 C 209.074 246.011, 223.455 242.402, 230.398 239.122 C 234.032 237.405, 237.454 236, 238.003 236 C 238.551 236, 239 235.587, 239 235.082 C 239 234.576, 240.585 233.183, 242.523 231.986 C 244.461 230.788, 247.948 227.443, 250.273 224.552 C 252.598 221.661, 255.555 217.991, 256.844 216.398 C 262.663 209.205, 265.976 197.812, 265.976 185 C 265.976 179.775, 265.359 173.250, 264.604 170.500 C 262.854 164.121, 259.263 155.794, 257.705 154.500 C 257.042 153.950, 254.609 150.960, 252.298 147.856 C 249.986 144.752, 246.120 140.593, 243.706 138.615 C 239.190 134.915, 224.822 127.763, 219.500 126.567 C 208.683 124.136, 201.891 123.605, 195 124.652 M 196.500 153.129 C 188.087 154.653, 179.664 160.064, 175.076 166.892 C 173.743 168.877, 172.354 170.725, 171.990 171 C 170.412 172.191, 169 178.805, 169 185 C 169 191.648, 170.381 197.511, 172.433 199.572 C 173.020 200.162, 174.572 202.187, 175.883 204.072 C 181.438 212.063, 192.272 217.302, 203.102 217.234 C 206.741 217.212, 210.569 216.727, 211.609 216.157 C 212.649 215.587, 214.728 214.862, 216.230 214.546 C 220.532 213.641, 229.028 206.031, 231.902 200.508 C 233.331 197.763, 234.950 195.192, 235.500 194.795 C 236.050 194.398, 236.500 189.862, 236.500 184.715 C 236.500 177.136, 236.167 175.024, 234.750 173.607 C 233.787 172.645, 233 171.409, 233 170.862 C 233 169.452, 227.961 162.877, 225.057 160.500 C 220.222 156.541, 215.114 154.225, 208.782 153.122 C 205.237 152.505, 202.148 152.050, 201.918 152.112 C 201.688 152.173, 199.250 152.631, 196.500 153.129" stroke="none" fill="black" fill-rule="evenodd"/>
</svg>